<svg xmlns="http://www.w3.org/2000/svg" xmlns:xlink="http://www.w3.org/1999/xlink" width="248" height="256" viewBox="0 0 248 256">
    <defs>
        <circle id="b" cx="165.185" cy="176.185" r="110"/>
        <filter id="a" width="123.6%" height="123.6%" x="-7.3%" y="-11.8%" filterUnits="objectBoundingBox">
            <feOffset dx="10" in="SourceAlpha" result="shadowOffsetOuter1"/>
            <feGaussianBlur in="shadowOffsetOuter1" result="shadowBlurOuter1" stdDeviation="7"/>
            <feColorMatrix in="shadowBlurOuter1" values="0 0 0 0 0.117647059 0 0 0 0 0.447058824 0 0 0 0 0.705882353 0 0 0 0.5 0"/>
        </filter>
        <path id="c" d="M102.164 51.563C88.509 27.984 66.842 9.59 40.867.073l-5.54 15.007a2.835 2.835 0 0 0 .096 2.191l2.54 5.39a2.842 2.842 0 0 1-1.372 3.785l-5.536 2.59c-.68.317-1.207.89-1.467 1.593L.296 109.98l73.716-42.262a2.867 2.867 0 0 1 2.192-.275l5.92 1.644a2.858 2.858 0 0 0 3.494-2.022l1.58-5.948a2.845 2.845 0 0 1 1.336-1.738l13.63-7.816z"/>
        <path id="e" d="M117.82 58.447c0-21.276-5.699-41.225-15.656-58.418L88.537 7.846A2.85 2.85 0 0 0 87.2 9.583l-1.578 5.927a2.857 2.857 0 0 1-3.515 2.015l-5.938-1.618c-.735-.2-1.52-.1-2.18.278L.296 58.447l83.563 14.698c.743.13 1.404.549 1.838 1.163l3.567 5.04a2.863 2.863 0 0 0 3.98.687l5.06-3.552a2.864 2.864 0 0 1 2.126-.48l15.64 2.658a117.366 117.366 0 0 0 1.75-20.214"/>
        <path id="g" d="M98.303 18.33l-5.06 3.552a2.864 2.864 0 0 1-3.98-.686l-3.567-5.04a2.857 2.857 0 0 0-1.838-1.163L.296.294l54.847 64.741a2.84 2.84 0 0 1 .664 2.069l-.5 6.073a2.85 2.85 0 0 0 2.613 3.07l6.039.494a2.86 2.86 0 0 1 1.949 1L76.089 89.76c20.616-17.349 35.155-41.637 39.98-69.251l-15.64-2.657a2.864 2.864 0 0 0-2.126.48"/>
        <path id="i" d="M82.26 89.76L72.077 77.741a2.86 2.86 0 0 0-1.949-1.001l-6.04-.494a2.85 2.85 0 0 1-2.613-3.07l.501-6.073a2.84 2.84 0 0 0-.664-2.069L6.466.295v84.744c0 .761-.306 1.49-.85 2.025l-4.35 4.28a2.839 2.839 0 0 0-.024 4.024l5.18 5.222.044-.044v16.82c28.885 0 55.33-10.386 75.793-27.607"/>
        <path id="k" d="M75.759.294L21.219 65.21a2.863 2.863 0 0 1-1.96 1.01l-5.894.476a2.849 2.849 0 0 0-2.616 3.066l.491 6.05a2.843 2.843 0 0 1-.656 2.056L.332 90.07c20.412 17.036 46.714 27.298 75.427 27.298v-16.82l-.045.043-5.179-5.221a2.84 2.84 0 0 1 .025-4.026l4.35-4.279c.543-.535.849-1.264.849-2.025V.294z"/>
        <path id="m" d="M116.1.294l-83.549 14.87a2.866 2.866 0 0 1-2.157-.482l-4.855-3.436a2.864 2.864 0 0 0-3.984.67L17.98 16.93a2.857 2.857 0 0 1-1.826 1.153L.39 20.888c4.92 27.621 19.567 51.89 40.284 69.181l10.252-12.2c.48-.574.717-1.313.656-2.057l-.491-6.05a2.849 2.849 0 0 1 2.616-3.066l5.893-.476a2.863 2.863 0 0 0 1.96-1.01L116.1.294z"/>
        <path id="o" d="M101.862 110.453l-28.99-79.377a2.835 2.835 0 0 1 .093-2.171l2.604-5.59a2.84 2.84 0 0 0-1.39-3.78l-5.565-2.57a2.853 2.853 0 0 1-1.483-1.608L61.67.408C35.633 9.848 13.894 28.196.161 51.752l101.701 58.701z"/>
        <path id="q" d="M15.824.218C5.764 17.477 0 37.526 0 58.92c0 7.026.623 13.907 1.814 20.593l15.764-2.806a2.857 2.857 0 0 0 1.826-1.153l3.575-5.011a2.864 2.864 0 0 1 3.984-.672l4.855 3.437a2.866 2.866 0 0 0 2.157.481l83.55-14.87"/>
        <path id="s" d="M158.124 7.165C145.48 2.531 131.813 0 117.553 0c-14.117 0-27.651 2.482-40.191 7.027l5.459 14.948c.26.712.794 1.29 1.484 1.61l5.565 2.569a2.841 2.841 0 0 1 1.391 3.779l-2.602 5.593a2.838 2.838 0 0 0-.093 2.17l28.987 79.376 29.292-79.351a2.85 2.85 0 0 1 1.467-1.594l5.537-2.59a2.84 2.84 0 0 0 1.371-3.785l-2.54-5.389a2.833 2.833 0 0 1-.095-2.191l5.54-15.007z"/>
        <ellipse id="v" cx="77.159" cy="76.367" rx="76.275" ry="75.876"/>
        <filter id="u" width="108.5%" height="108.6%" x="-4.3%" y="-3.6%" filterUnits="objectBoundingBox">
            <feOffset dy="1" in="SourceAlpha" result="shadowOffsetOuter1"/>
            <feGaussianBlur in="shadowOffsetOuter1" result="shadowBlurOuter1" stdDeviation="2"/>
            <feColorMatrix in="shadowBlurOuter1" values="0 0 0 0 0.117647059 0 0 0 0 0.447058824 0 0 0 0 0.705882353 0 0 0 0.25 0"/>
        </filter>
        <ellipse id="x" cx="16.201" cy="15.577" rx="13.144" ry="13.059"/>
        <filter id="w" width="149.5%" height="149.8%" x="-24.7%" y="-21.1%" filterUnits="objectBoundingBox">
            <feOffset dy="1" in="SourceAlpha" result="shadowOffsetOuter1"/>
            <feGaussianBlur in="shadowOffsetOuter1" result="shadowBlurOuter1" stdDeviation="2"/>
            <feColorMatrix in="shadowBlurOuter1" values="0 0 0 0 0.117647059 0 0 0 0 0.447058824 0 0 0 0 0.705882353 0 0 0 0.25 0"/>
        </filter>
        <path id="y" d="M9.507 4.19v7.131a.765.765 0 0 1-.755.775H.756A.765.765 0 0 1 0 11.321V.775C0 .347.338 0 .756 0h4.783c.162 0 .394.129.394.392v2c0 .75.592 1.403 1.323 1.403h1.859a.4.4 0 0 1 .392.395M6.19 8.434c.26-.216.389-.5.389-.848 0-.237-.052-.431-.155-.584a1.145 1.145 0 0 0-.483-.38c-.217-.1-.51-.19-.88-.27a4.96 4.96 0 0 1-.612-.18.815.815 0 0 1-.311-.192.394.394 0 0 1-.096-.271.41.41 0 0 1 .195-.367c.13-.085.31-.127.538-.127.208 0 .38.043.52.13.139.086.22.193.245.322.034.072.094.108.18.108h.592a.129.129 0 0 0 .093-.036.122.122 0 0 0 .037-.09.941.941 0 0 0-.165-.457 1.372 1.372 0 0 0-.44-.413 1.774 1.774 0 0 0-.694-.231V4.12a.14.14 0 0 0-.041-.105.148.148 0 0 0-.11-.04h-.384a.152.152 0 0 0-.106.04.135.135 0 0 0-.044.105v.415c-.406.048-.726.18-.96.397a1.04 1.04 0 0 0-.352.794c0 .345.114.61.342.794.228.185.587.333 1.076.445.294.076.517.142.668.195a.95.95 0 0 1 .34.19.36.36 0 0 1 .111.27.439.439 0 0 1-.22.39c-.148.093-.364.14-.65.14-.257 0-.46-.046-.607-.138a.652.652 0 0 1-.29-.343.285.285 0 0 0-.077-.087.206.206 0 0 0-.115-.027h-.56a.135.135 0 0 0-.096.039.119.119 0 0 0-.04.087.992.992 0 0 0 .177.52c.11.163.271.3.485.412.213.113.47.183.768.21v.423c0 .043.015.078.044.104.029.027.064.04.106.04h.385a.148.148 0 0 0 .109-.04.139.139 0 0 0 .04-.104v-.422c.44-.044.79-.175 1.048-.39"/>
        <path id="A" d="M.912 3.096H2.7c.212 0 .295-.245.168-.38L.487.18C.363.048.102.128.102.34v1.952c0 .407.32.804.81.804"/>
        <ellipse id="D" cx="13.464" cy="13.865" rx="13.228" ry="13.002"/>
        <filter id="C" width="149.1%" height="150%" x="-24.6%" y="-21.2%" filterUnits="objectBoundingBox">
            <feOffset dy="1" in="SourceAlpha" result="shadowOffsetOuter1"/>
            <feGaussianBlur in="shadowOffsetOuter1" result="shadowBlurOuter1" stdDeviation="2"/>
            <feColorMatrix in="shadowBlurOuter1" values="0 0 0 0 0.117647059 0 0 0 0 0.447058824 0 0 0 0 0.705882353 0 0 0 0.25 0"/>
        </filter>
        <path id="E" d="M7.704 6.071a.648.648 0 0 1-.64-.654c0-.362.286-.655.64-.655.353 0 .64.293.64.655a.648.648 0 0 1-.64.654m-2.423 0a.648.648 0 0 1-.64-.654c0-.362.287-.655.64-.655.354 0 .64.293.64.655a.648.648 0 0 1-.64.654m-2.422 0a.647.647 0 0 1-.64-.654c0-.362.286-.655.64-.655.353 0 .64.293.64.655a.648.648 0 0 1-.64.654m2.08-6.06C2.398.175.287 2.246.029 4.837a5.49 5.49 0 0 0 .689 3.285c.13.23.167.503.112.763L.513 10.39c-.06.286.215.524.48.418l1.27-.51c.266-.107.563-.103.822.018a5.17 5.17 0 0 0 2.988.432c2.315-.348 4.162-2.282 4.448-4.658.41-3.41-2.287-6.292-5.582-6.079"/>
        <ellipse id="H" cx="14.085" cy="13.2" rx="13.219" ry="12.968"/>
        <filter id="G" width="149.2%" height="150.1%" x="-24.6%" y="-21.2%" filterUnits="objectBoundingBox">
            <feOffset dy="1" in="SourceAlpha" result="shadowOffsetOuter1"/>
            <feGaussianBlur in="shadowOffsetOuter1" result="shadowBlurOuter1" stdDeviation="2"/>
            <feColorMatrix in="shadowBlurOuter1" values="0 0 0 0 0.117647059 0 0 0 0 0.447058824 0 0 0 0 0.705882353 0 0 0 0.25 0"/>
        </filter>
        <path id="I" d="M7.71 8.06c-.277.26-.65.416-1.119.47v.505a.18.18 0 0 1-.043.127.15.15 0 0 1-.116.046H6.02a.154.154 0 0 1-.113-.046.172.172 0 0 1-.047-.127V8.53a2.003 2.003 0 0 1-.82-.252c-.227-.135-.4-.3-.518-.495a1.293 1.293 0 0 1-.189-.625.15.15 0 0 1 .043-.104.137.137 0 0 1 .103-.047h.597a.2.2 0 0 1 .124.033.33.33 0 0 1 .082.104c.05.164.152.3.31.412.157.11.373.166.647.166.306 0 .536-.057.694-.17a.543.543 0 0 0 .235-.466c0-.13-.039-.238-.119-.325a.997.997 0 0 0-.362-.227 8.067 8.067 0 0 0-.713-.235c-.523-.135-.906-.313-1.15-.534-.243-.222-.365-.54-.365-.954 0-.376.126-.694.376-.954s.591-.418 1.025-.476V2.88a.17.17 0 0 1 .047-.125.152.152 0 0 1 .113-.048h.412a.15.15 0 0 1 .116.048c.029.03.043.073.043.125v.513c.287.044.535.137.74.278.206.143.363.307.472.495.108.188.167.37.176.55a.156.156 0 0 1-.04.108.129.129 0 0 1-.1.043h-.63a.192.192 0 0 1-.193-.13.585.585 0 0 0-.262-.387.946.946 0 0 0-.555-.155c-.243 0-.435.05-.574.152a.51.51 0 0 0-.21.44c0 .13.035.238.103.325a.87.87 0 0 0 .333.232c.152.067.37.139.653.216.395.096.708.205.94.325.233.12.404.272.515.455.11.183.166.417.166.7 0 .42-.139.76-.415 1.02M5.959 0a5.959 5.959 0 1 0 0 11.917A5.959 5.959 0 0 0 5.959 0"/>
        <ellipse id="L" cx="13.258" cy="13.107" rx="13.147" ry="13.056"/>
        <filter id="K" width="149.4%" height="149.8%" x="-24.7%" y="-21.1%" filterUnits="objectBoundingBox">
            <feOffset dy="1" in="SourceAlpha" result="shadowOffsetOuter1"/>
            <feGaussianBlur in="shadowOffsetOuter1" result="shadowBlurOuter1" stdDeviation="2"/>
            <feColorMatrix in="shadowBlurOuter1" values="0 0 0 0 0.117647059 0 0 0 0 0.447058824 0 0 0 0 0.705882353 0 0 0 0.25 0"/>
        </filter>
        <path id="M" d="M5.443 9.513c-.03.003-.06.005-.088.005h-.001a4.138 4.138 0 0 1-2.945-1.22 4.138 4.138 0 0 1-1.22-2.944c0-2.266 1.82-4.111 4.075-4.16.03-.002.06-.004.088-.004h.002c1.112 0 2.158.433 2.944 1.22a4.136 4.136 0 0 1 1.22 2.944 4.167 4.167 0 0 1-4.075 4.16m5.504.673l-1.23-1.23a.387.387 0 0 1-.033-.504c.873-1.213 1.251-2.804.831-4.48a4.879 4.879 0 0 0-.586-1.388C8.905.937 7.196 0 5.343 0h-.002c-.036 0-.074.002-.113.006A5.346 5.346 0 0 0 0 5.343c0 1.427.556 2.77 1.565 3.779a5.308 5.308 0 0 0 3.778 1.565h.003c.036 0 .073-.002.112-.006a5.317 5.317 0 0 0 2.993-1 .388.388 0 0 1 .503.032l1.233 1.234a.534.534 0 0 0 .76 0c.21-.21.21-.55 0-.76"/>
        <path id="O" d="M4.368 1.57H3.304a.474.474 0 0 1-.449-.342L2.527.17a.233.233 0 0 0-.45 0L1.75 1.228a.475.475 0 0 1-.449.341H.237c-.229 0-.324.307-.14.447l.861.654a.507.507 0 0 1 .171.552L.801 4.28c-.07.227.178.417.363.276l.86-.654a.456.456 0 0 1 .556 0l.86.654c.185.14.434-.049.363-.276l-.329-1.058a.508.508 0 0 1 .172-.552l.86-.654c.186-.14.09-.447-.138-.447"/>
        <ellipse id="R" cx="13.085" cy="13.821" rx="13.018" ry="12.968"/>
        <filter id="Q" width="149.9%" height="150.1%" x="-25%" y="-21.2%" filterUnits="objectBoundingBox">
            <feOffset dy="1" in="SourceAlpha" result="shadowOffsetOuter1"/>
            <feGaussianBlur in="shadowOffsetOuter1" result="shadowBlurOuter1" stdDeviation="2"/>
            <feColorMatrix in="shadowBlurOuter1" values="0 0 0 0 0.117647059 0 0 0 0 0.447058824 0 0 0 0 0.705882353 0 0 0 0.25 0"/>
        </filter>
        <path id="S" d="M4.78 5.801a.93.93 0 0 1 .27.657v2.169c0 .172-.139.31-.31.31H2.776a.311.311 0 0 1-.312-.31V8.12a.31.31 0 0 0-.094-.223L.2 5.798A.658.658 0 0 1 0 5.325V.693C0 .354.236.06.55.009a.664.664 0 0 1 .773.65l.001 2.787-.013.034a1.11 1.11 0 0 0 .105 1.471L2.8 6.303c.094.091.22.102.316.007a.22.22 0 0 0 .022-.282L1.744 4.62a.654.654 0 0 1-.195-.466.654.654 0 0 1 .66-.66.66.66 0 0 1 .47.195l2.1 2.112zm2.899 0l2.1-2.112a.66.66 0 0 1 .937-.003.654.654 0 0 1 .193.468c0 .176-.07.342-.195.466L9.32 6.028a.22.22 0 0 0 .021.282c.096.095.223.084.316-.007l1.386-1.352a1.117 1.117 0 0 0 .105-1.47l-.014-.035.001-2.786a.664.664 0 0 1 .773-.65c.314.05.55.344.55.683v4.632a.658.658 0 0 1-.2.473l-2.17 2.1a.31.31 0 0 0-.095.223v.506c0 .172-.14.31-.311.31H7.719a.311.311 0 0 1-.311-.31v-2.17a.93.93 0 0 1 .27-.656z"/>
        <path id="U" d="M4.881 1.846H3.693a.535.535 0 0 1-.502-.401L2.824.2c-.08-.267-.423-.267-.502 0l-.367 1.245a.536.536 0 0 1-.502.401H.265c-.256 0-.363.36-.156.526l.962.769c.185.148.262.41.191.65L.895 5.035c-.079.268.2.49.406.325l.962-.77a.489.489 0 0 1 .62 0l.961.77c.207.165.485-.057.407-.325l-.368-1.244a.617.617 0 0 1 .192-.65l.962-.769c.206-.166.1-.526-.156-.526"/>
        <ellipse id="X" cx="13.946" cy="13.384" rx="13.147" ry="13.056"/>
        <filter id="W" width="149.4%" height="149.8%" x="-24.7%" y="-21.1%" filterUnits="objectBoundingBox">
            <feOffset dy="1" in="SourceAlpha" result="shadowOffsetOuter1"/>
            <feGaussianBlur in="shadowOffsetOuter1" result="shadowBlurOuter1" stdDeviation="2"/>
            <feColorMatrix in="shadowBlurOuter1" values="0 0 0 0 0.117647059 0 0 0 0 0.447058824 0 0 0 0 0.705882353 0 0 0 0.25 0"/>
        </filter>
        <path id="Y" d="M5.138 2.007h-1.25a.554.554 0 0 1-.529-.378L2.972.46c-.083-.251-.445-.251-.528 0l-.386 1.17a.555.555 0 0 1-.529.378H.28c-.27 0-.382.338-.164.494l1.012.723c.194.139.276.385.202.61l-.387 1.17c-.083.252.21.461.428.306l1.012-.723a.562.562 0 0 1 .652 0l1.013.723c.217.155.51-.054.428-.306l-.388-1.17a.542.542 0 0 1 .202-.61L5.302 2.5c.217-.156.105-.494-.164-.494"/>
        <path id="aa" d="M5.138 2.007h-1.25a.554.554 0 0 1-.529-.378L2.972.46c-.083-.251-.445-.251-.528 0l-.386 1.17a.555.555 0 0 1-.529.378H.28c-.27 0-.382.338-.164.494l1.012.723c.194.139.276.385.202.61l-.387 1.17c-.083.252.21.461.428.306l1.012-.723a.562.562 0 0 1 .652 0l1.013.723c.217.155.51-.054.428-.306l-.388-1.17a.542.542 0 0 1 .202-.61L5.302 2.5c.217-.156.105-.494-.164-.494"/>
        <path id="ac" d="M5.138 2.007h-1.25a.554.554 0 0 1-.529-.378L2.972.46c-.083-.251-.445-.251-.528 0l-.386 1.17a.555.555 0 0 1-.529.378H.28c-.27 0-.382.338-.164.494l1.012.723c.194.139.276.385.202.61l-.387 1.17c-.083.252.21.461.428.306l1.012-.723a.562.562 0 0 1 .652 0l1.013.723c.217.155.51-.054.428-.306l-.388-1.17a.542.542 0 0 1 .202-.61L5.302 2.5c.217-.156.105-.494-.164-.494"/>
        <ellipse id="af" cx="13.631" cy="13.729" rx="13.147" ry="13.056"/>
        <filter id="ae" width="149.4%" height="149.8%" x="-24.7%" y="-21.1%" filterUnits="objectBoundingBox">
            <feOffset dy="1" in="SourceAlpha" result="shadowOffsetOuter1"/>
            <feGaussianBlur in="shadowOffsetOuter1" result="shadowBlurOuter1" stdDeviation="2"/>
            <feColorMatrix in="shadowBlurOuter1" values="0 0 0 0 0.117647059 0 0 0 0 0.447058824 0 0 0 0 0.705882353 0 0 0 0.25 0"/>
        </filter>
        <path id="ag" d="M5.443 9.513a.998.998 0 0 1-.087.005h-.002a4.138 4.138 0 0 1-2.945-1.22 4.138 4.138 0 0 1-1.22-2.944c0-2.266 1.821-4.111 4.075-4.16.03-.002.06-.004.088-.004h.002a4.14 4.14 0 0 1 2.944 1.22 4.137 4.137 0 0 1 1.22 2.944 4.167 4.167 0 0 1-4.075 4.16m5.504.673l-1.23-1.23a.388.388 0 0 1-.033-.504 5.304 5.304 0 0 0 1.003-3.11c0-1.961-1.05-3.762-2.883-4.758C7.054.176 6.198 0 5.344 0H5.34c-.036 0-.074.002-.112.006A5.346 5.346 0 0 0 0 5.343c0 1.427.556 2.77 1.565 3.778a5.308 5.308 0 0 0 3.778 1.566h.002c.037 0 .075-.002.113-.006a5.318 5.318 0 0 0 2.993-1 .388.388 0 0 1 .503.032l1.233 1.234a.534.534 0 0 0 .76 0c.21-.21.21-.55 0-.76"/>
        <path id="ai" d="M3.998 1.65A.986.986 0 0 1 2.583.763c0-.155.037-.3.101-.429.062-.112-.014-.273-.152-.299A1.92 1.92 0 0 0 2.167 0a2.167 2.167 0 1 0 2.166 2.167c0-.127-.014-.25-.037-.37a.21.21 0 0 0-.298-.148"/>
        <ellipse id="al" cx="14.222" cy="13.385" rx="13.289" ry="13.238"/>
        <filter id="ak" width="148.9%" height="149.1%" x="-24.5%" y="-20.8%" filterUnits="objectBoundingBox">
            <feOffset dy="1" in="SourceAlpha" result="shadowOffsetOuter1"/>
            <feGaussianBlur in="shadowOffsetOuter1" result="shadowBlurOuter1" stdDeviation="2"/>
            <feColorMatrix in="shadowBlurOuter1" values="0 0 0 0 0.117647059 0 0 0 0 0.447058824 0 0 0 0 0.705882353 0 0 0 0.25 0"/>
        </filter>
        <path id="am" d="M8.938 1.019a.994.994 0 0 0-.98-1.005L5.832.007a.331.331 0 0 0-.327.335V6.65c0 .299-.353.448-.56.237l-.919-1.275a.322.322 0 0 0-.463 0l-.84 1.194c-.205.211-.558.062-.558-.237V.337c0-.185-.126-.335-.307-.335L.813 0A.822.822 0 0 0 0 .83v9.985c0 .459.364.83.812.83h7.314a.822.822 0 0 0 .812-.83V1.019z"/>
        <ellipse id="ap" cx="13.44" cy="13.177" rx="13.147" ry="13.056"/>
        <filter id="ao" width="149.4%" height="149.8%" x="-24.7%" y="-21.1%" filterUnits="objectBoundingBox">
            <feOffset dy="1" in="SourceAlpha" result="shadowOffsetOuter1"/>
            <feGaussianBlur in="shadowOffsetOuter1" result="shadowBlurOuter1" stdDeviation="2"/>
            <feColorMatrix in="shadowBlurOuter1" values="0 0 0 0 0.117647059 0 0 0 0 0.447058824 0 0 0 0 0.705882353 0 0 0 0.25 0"/>
        </filter>
        <path id="aq" d="M9.814 7.432a.34.34 0 0 1-.07.38l-2.28 2.295c-.099.1-.249.13-.376.071a1.57 1.57 0 0 0-.666-.148 1.52 1.52 0 0 0-.557.107.337.337 0 0 1-.355-.072L3.052 7.7a.34.34 0 0 1-.078-.38c.084-.194.133-.407.133-.632 0-.25-.058-.487-.159-.7a.337.337 0 0 1 .066-.377L5.158 3.39a.339.339 0 0 1 .39-.07 1.7 1.7 0 0 0 1.494-.004.337.337 0 0 1 .388.065l2.313 2.33c.1.1.13.25.07.379a1.604 1.604 0 0 0 0 1.342M5.47 1.64c0-.502.409-.912.911-.912a.913.913 0 0 1 0 1.823.913.913 0 0 1-.911-.911m7.623 4.727A1.614 1.614 0 0 0 11.8 5.122a1.624 1.624 0 0 0-.965.118.347.347 0 0 1-.386-.068l-2.34-2.304a.331.331 0 0 1-.067-.384c.169-.34.228-.744.128-1.166A1.73 1.73 0 0 0 6.842.039C5.71-.194 4.711.652 4.711 1.728c0 .272.064.529.178.758a.334.334 0 0 1-.062.383L2.649 5.085a.346.346 0 0 1-.385.074 1.605 1.605 0 0 0-.958-.104C.669 5.179.15 5.682.03 6.31a1.607 1.607 0 0 0 1.592 1.91c.256 0 .497-.058.713-.162a.34.34 0 0 1 .38.063l2.391 2.25a.335.335 0 0 1 .064.408 1.547 1.547 0 0 0-.154 1.1 1.61 1.61 0 0 0 1.25 1.214c1.042.203 1.954-.577 1.954-1.566 0-.238-.054-.462-.149-.664a.33.33 0 0 1 .072-.376l2.305-2.272a.343.343 0 0 1 .382-.07c.205.093.432.147.673.147 1.004 0 1.794-.899 1.59-1.924"/>
    </defs>
    <g fill="none" fill-rule="evenodd">
        <use fill="#000" fill-rule="nonzero" filter="url(#a)" transform="rotate(49 197.64 99.119)" xlink:href="#b"/>
        <g transform="rotate(41 123 125.012)">
            <ellipse cx="121.404" cy="120.985" fill="#FFF" fill-rule="nonzero" rx="121.026" ry="120.56"/>
            <g transform="translate(4.271 4.255)">
                <g transform="translate(117.229 7.092)">
                    <mask id="d" fill="#fff">
                        <use xlink:href="#c"/>
                    </mask>
                    <g fill="#3175AE" fill-rule="nonzero" mask="url(#d)">
                        <path d="M112.568 25.75l-35.57 97.728L4.642 97.143 40.212-.585z"/>
                    </g>
                </g>
                <g transform="translate(117.229 58.625)">
                    <mask id="f" fill="#fff">
                        <use xlink:href="#e"/>
                    </mask>
                    <use stroke="#5491C4" xlink:href="#e"/>
                    <g fill="#5491C4" fill-rule="nonzero" mask="url(#f)">
                        <path d="M139.414 64.623l-103.923 60-38-65.818 103.923-60z"/>
                    </g>
                </g>
                <g transform="translate(117.229 116.778)">
                    <mask id="h" fill="#fff">
                        <use xlink:href="#g"/>
                    </mask>
                    <use stroke="#66A0CD" xlink:href="#g"/>
                    <g fill="#66A0CD" fill-rule="nonzero" mask="url(#h)">
                        <path d="M107.966 117.69L-2.332 98.243 14.51 2.716 124.81 22.164z"/>
                    </g>
                </g>
                <g transform="translate(111.059 116.778)">
                    <mask id="j" fill="#fff">
                        <use xlink:href="#i"/>
                    </mask>
                    <use stroke="#78AED6" xlink:href="#i"/>
                    <g fill="#78AED6" fill-rule="nonzero" mask="url(#j)">
                        <path d="M24.356 138.776l-61.707-73.54 58.219-48.852 61.708 73.54z"/>
                    </g>
                </g>
                <g transform="translate(41.766 116.778)">
                    <mask id="l" fill="#fff">
                        <use xlink:href="#k"/>
                    </mask>
                    <use fill="#6B6B6B" stroke="#8DBFE1" xlink:href="#k"/>
                    <g fill="#8DBFE1" fill-rule="nonzero" mask="url(#l)">
                        <path d="M-24.494 135.592L-5.844 2.896l96.056 13.5-18.65 132.696z"/>
                    </g>
                </g>
                <g transform="translate(1.424 116.778)">
                    <mask id="n" fill="#fff">
                        <use xlink:href="#m"/>
                    </mask>
                    <use stroke="#3BBC88" xlink:href="#m"/>
                    <g fill="#3BBC88" fill-rule="nonzero" mask="url(#n)">
                        <path d="M-18.701 40.53L54.577-46.8l59.751 50.138L41.05 90.667z"/>
                    </g>
                </g>
                <g transform="translate(15.662 6.619)">
                    <mask id="p" fill="#fff">
                        <use xlink:href="#o"/>
                    </mask>
                    <use stroke="#003F81" xlink:href="#o"/>
                    <g fill="#003F81" fill-rule="nonzero" mask="url(#p)">
                        <path d="M37.817-14.754l76.21 44-38.5 66.684-76.21-44z"/>
                    </g>
                </g>
                <g transform="translate(0 58.153)">
                    <mask id="r" fill="#fff">
                        <use xlink:href="#q"/>
                    </mask>
                    <use stroke="#2FB27A" xlink:href="#q"/>
                    <g fill="#2FB27A" fill-rule="nonzero" mask="url(#r)">
                        <path d="M-12.558 4.792l116.207-20.49 13.37 75.83L.814 80.622z"/>
                    </g>
                </g>
                <mask id="t" fill="#fff">
                    <use xlink:href="#s"/>
                </mask>
                <use stroke="#155694" xlink:href="#s"/>
                <g fill="#155694" fill-rule="nonzero" mask="url(#t)">
                    <path d="M148.305-19.662L186.61 85.583l-71.417 25.994L76.888 6.33z"/>
                </g>
            </g>
            <g transform="translate(29.487 34.935)">
                <ellipse cx="93.468" cy="86.896" stroke="#323232" rx="58.99" ry="58.603"/>
                <g fill-rule="nonzero" transform="translate(14.662 12.93)">
                    <use fill="#000" filter="url(#u)" xlink:href="#v"/>
                    <use fill="#FFF" xlink:href="#v"/>
                </g>
                <path fill="#2E5298" d="M75.968 78.64l-3.3 2.87 1.145 1.317 3.03-2.634.936 1.078-3.03 2.633 1.387 1.595 3.453-3.001.97 1.115-4.727 4.11-5.393-6.205 4.574-3.976.955 1.098zm4.885 1.355c.286.25.548.394.785.434.434.071.907-.116 1.42-.563.308-.267.528-.518.662-.752.251-.445.225-.843-.08-1.194a.703.703 0 0 0-.684-.24c-.276.047-.644.197-1.103.449l-.788.426c-.776.418-1.362.65-1.76.694-.669.08-1.268-.186-1.797-.795-.483-.555-.681-1.193-.595-1.914.087-.72.524-1.423 1.31-2.107.658-.572 1.37-.886 2.135-.943.765-.056 1.446.235 2.041.875l-1.252 1.089c-.347-.354-.741-.477-1.183-.37-.293.074-.59.241-.892.503-.336.292-.545.593-.629.901a.851.851 0 0 0 .19.826.707.707 0 0 0 .728.239c.19-.038.536-.187 1.036-.45l1.298-.677c.568-.297 1.054-.456 1.458-.477.626-.032 1.179.229 1.66.782.492.567.683 1.227.573 1.98-.11.754-.563 1.476-1.358 2.168-.813.706-1.612 1.077-2.398 1.112-.786.036-1.46-.269-2.021-.914l1.244-1.082zm6.984-10.202c-.467-.338-.965-.424-1.495-.26a2.365 2.365 0 0 0-.836.484c-.502.436-.75.983-.746 1.642.005.658.337 1.366.996 2.123.663.764 1.308 1.152 1.933 1.165.626.013 1.161-.174 1.607-.562.437-.38.686-.817.747-1.31.061-.495-.053-.973-.342-1.437l-1.442 1.255-.9-1.036 2.597-2.258 2.895 3.33-.863.75-.805-.66c.005.512-.04.916-.135 1.21-.162.51-.493.983-.995 1.42-.827.718-1.751 1.022-2.774.91-1.048-.093-2.003-.637-2.867-1.63-.873-1.005-1.295-2.052-1.267-3.141.03-1.09.5-2.031 1.415-2.826.792-.689 1.603-1.043 2.431-1.06.829-.019 1.538.24 2.128.776l-1.282 1.115zm-15.965 31.866l-3.3 2.87 1.145 1.317 3.03-2.634.936 1.078-3.03 2.633 1.387 1.596 3.453-3.002.97 1.116-4.727 4.108-5.393-6.204 4.574-3.976.955 1.098zm5.706-1.161a1.406 1.406 0 0 0-.576-.312c-.297-.068-.587.022-.872.27-.406.353-.51.795-.31 1.326.106.282.313.6.62.954.293.336.568.573.825.709.475.257.912.212 1.31-.134.282-.245.416-.495.403-.75-.013-.254-.112-.513-.296-.776l1.231-1.07c.289.389.456.85.502 1.38.079.854-.253 1.603-.995 2.248-.742.645-1.478.9-2.209.767-.73-.134-1.399-.55-2.006-1.249-.686-.788-1.025-1.57-1.02-2.343.007-.774.35-1.456 1.03-2.047.578-.503 1.163-.785 1.755-.847.593-.062 1.207.205 1.843.8l-1.235 1.074zM83.534 99c.353-.306.515-.666.487-1.08-.028-.415-.242-.852-.642-1.312-.4-.46-.803-.732-1.208-.816-.405-.084-.783.027-1.136.333-.353.307-.516.667-.49 1.081.025.414.237.85.638 1.311.4.46.803.733 1.21.817.408.084.788-.027 1.141-.334zm1.11-3.492c.585.674.891 1.419.918 2.236.026.817-.357 1.57-1.15 2.259-.792.689-1.59.963-2.396.823-.805-.14-1.5-.547-2.086-1.22-.576-.662-.88-1.405-.913-2.23-.032-.823.348-1.58 1.14-2.269.793-.689 1.595-.96 2.406-.813.812.147 1.505.552 2.08 1.214zm2.516-.746c.21.191.397.295.56.311.289.03.634-.13 1.038-.48.237-.207.395-.405.473-.597.079-.191.057-.357-.065-.498a.45.45 0 0 0-.436-.16c-.174.028-.698.272-1.571.73-.634.325-1.143.484-1.526.477-.38-.005-.726-.187-1.038-.546-.369-.424-.518-.933-.448-1.528s.407-1.156 1.014-1.683c.575-.5 1.144-.794 1.705-.88.561-.087 1.113.127 1.654.642l-1.206 1.048a.937.937 0 0 0-.45-.252c-.274-.047-.57.067-.889.344-.262.229-.414.432-.454.61-.04.178-.014.322.081.431.12.138.266.186.438.145.175-.039.69-.292 1.546-.76.577-.305 1.084-.448 1.521-.429.437.024.806.209 1.106.554.395.455.548.974.458 1.557-.09.583-.49 1.183-1.201 1.801-.725.63-1.393.944-2.003.94-.61-.005-1.12-.242-1.53-.714l1.223-1.063zm6.104-1.19l.16-.124c.123-.097.232-.2.327-.307a.808.808 0 0 0 .187-.332c.029-.11.008-.266-.063-.47-.071-.204-.127-.318-.168-.342l-5.856-3.319 1.341-1.166 3.95 2.509-1.99-4.212 1.282-1.115 2.34 5.888c.451 1.135.679 1.884.683 2.248.004.363-.26.777-.794 1.24a9.82 9.82 0 0 1-.565.461l-.834-.96zm3.535-7.189c.21.191.397.295.56.311.288.03.634-.13 1.038-.48.237-.207.395-.405.473-.597.079-.192.057-.357-.065-.498a.45.45 0 0 0-.436-.16c-.174.028-.698.272-1.571.73-.635.325-1.143.484-1.526.477-.38-.005-.726-.187-1.038-.546-.369-.424-.518-.933-.448-1.528s.407-1.156 1.014-1.683c.575-.5 1.144-.794 1.705-.88.561-.087 1.112.127 1.654.642l-1.206 1.048a.937.937 0 0 0-.45-.252c-.274-.047-.57.067-.889.344-.262.228-.414.432-.454.61-.04.178-.014.322.081.431.12.138.266.186.438.145.175-.039.69-.292 1.546-.76.577-.305 1.084-.448 1.521-.429.437.024.806.209 1.106.554.395.455.548.974.458 1.557-.09.583-.49 1.183-1.201 1.801-.725.63-1.393.944-2.003.94-.61-.005-1.12-.242-1.53-.714l1.223-1.063zm1.47-5.187l-.742-.855.643-.559-1.113-1.28 1.194-1.037 1.112 1.28.749-.651.743.854-.75.651 2.108 2.425c.164.188.29.284.378.289.088.004.255-.1.5-.313a4.507 4.507 0 0 0 .23-.215l.78.897-.554.517c-.552.515-1.027.755-1.424.72-.255-.019-.506-.172-.755-.458l-2.455-2.825-.644.56zm5.154-4.532c-.28.243-.42.518-.423.825-.002.308.106.628.325.96l1.875-1.63c-.296-.3-.602-.456-.918-.47a1.196 1.196 0 0 0-.86.315zm-.86-.99a3.217 3.217 0 0 1 1.223-.686 2.402 2.402 0 0 1 1.351.016c.417.115.809.329 1.175.642.214.183.49.475.828.876l-3.157 2.744c.417.445.843.642 1.278.589.266-.03.517-.146.75-.35.249-.216.39-.461.423-.736.019-.15.002-.32-.05-.51l1.23-1.071c.207.299.304.7.294 1.2-.007.79-.366 1.494-1.077 2.112a3.109 3.109 0 0 1-2.043.785c-.775.014-1.531-.402-2.268-1.25-.69-.794-1.017-1.579-.98-2.355.036-.775.377-1.444 1.023-2.005zm8.172-7.066c.203-.177.438-.312.703-.405a1.775 1.775 0 0 1 1.671.307c.162.13.373.343.631.64l2.506 2.9-1.236 1.074-2.54-2.921a1.265 1.265 0 0 0-.457-.356c-.293-.12-.583-.055-.87.195-.333.29-.444.627-.332 1.012.062.202.182.406.36.61l2.375 2.733-1.214 1.055-2.375-2.731c-.237-.273-.437-.446-.6-.52-.295-.134-.59-.072-.886.186-.344.299-.48.61-.405.935.045.183.176.4.393.65l2.4 2.76-1.223 1.063-3.98-4.58 1.171-1.018.582.67c-.058-.37-.064-.662-.02-.878.079-.383.304-.737.676-1.06.353-.307.705-.477 1.056-.512.3-.009.592.06.877.206-.076-.407-.052-.775.072-1.105.139-.342.36-.645.665-.91zM94.29 99.703l1.874-1.63 5.393 6.205-1.214 1.055-3.648-4.196c-.105-.12-.25-.291-.437-.511-.186-.22-.33-.389-.433-.507l3.346 6.233-1.265 1.1-5.698-4.188c.102.118.25.284.441.5.192.214.34.382.445.503l3.648 4.197-1.214 1.055-5.394-6.204 1.896-1.648 5.375 3.893-3.115-5.857zm8.984-.834a1.74 1.74 0 0 1-.13.316 2.566 2.566 0 0 1-.248.36l-.227.286c-.215.265-.35.478-.403.638-.091.272-.037.522.163.752.178.205.364.304.558.296a.857.857 0 0 0 .536-.226c.259-.226.432-.51.52-.85.086-.342-.04-.717-.381-1.126l-.388-.446zm-1.219.076c.199-.221.328-.395.387-.52.109-.223.096-.412-.038-.566-.164-.188-.342-.26-.535-.218-.194.042-.417.174-.671.395-.285.247-.426.493-.422.736.005.177.07.367.196.568l-1.163 1.012c-.324-.424-.498-.852-.522-1.284-.032-.681.34-1.359 1.115-2.033.505-.44 1.04-.73 1.605-.87.566-.143 1.089.063 1.57.616l1.829 2.104c.127.146.283.32.47.523.144.15.261.236.35.258a.572.572 0 0 0 .298-.016l.153.177-1.311 1.14a1.763 1.763 0 0 1-.303-.195 4.148 4.148 0 0 1-.276-.248 3.28 3.28 0 0 1-.176.96c-.13.373-.36.703-.687.987-.417.363-.865.544-1.343.544-.479 0-.907-.218-1.285-.653-.49-.564-.627-1.163-.409-1.795.12-.346.388-.75.802-1.214l.366-.408zm6.618-4.88a2.383 2.383 0 0 0-1.059-.728c-.399-.13-.78-.038-1.144.278-.437.38-.558.847-.363 1.402.105.293.304.607.597.944.464.533.932.784 1.405.752.279-.02.534-.132.765-.333.336-.291.48-.643.431-1.054-.048-.412-.258-.832-.632-1.262zm-2.767-1.8a2.4 2.4 0 0 1 1.885-.596c.717.07 1.41.489 2.075 1.255.703.808 1.055 1.583 1.059 2.324.003.742-.284 1.362-.86 1.863-.366.318-.75.492-1.15.52-.221.015-.48-.02-.774-.103l2.078 2.39-1.193 1.038-5.558-6.394 1.155-1.004.589.678a2.556 2.556 0 0 1 .005-.832c.09-.438.32-.817.689-1.139z"/>
                <g fill-rule="nonzero" transform="translate(3.02 59.496)">
                    <use fill="#000" filter="url(#w)" xlink:href="#x"/>
                    <use fill="#FFF" xlink:href="#x"/>
                </g>
                <g transform="rotate(-40 105.772 21.062)">
                    <mask id="z" fill="#fff">
                        <use xlink:href="#y"/>
                    </mask>
                    <use fill="#FFF" xlink:href="#y"/>
                    <g fill="#2FB27A" fill-rule="nonzero" mask="url(#z)">
                        <path d="M-3.482-2.438h18v19h-18z"/>
                    </g>
                </g>
                <g transform="rotate(-40 102.522 12.133)">
                    <mask id="B" fill="#fff">
                        <use xlink:href="#A"/>
                    </mask>
                    <use fill="#FFF" xlink:href="#A"/>
                    <g fill="#2FB27A" fill-rule="nonzero" mask="url(#B)">
                        <path d="M-10.56-2.528h19v19h-19z"/>
                    </g>
                </g>
                <g fill-rule="nonzero" transform="rotate(56 -83.555 81.067)">
                    <use fill="#000" filter="url(#C)" xlink:href="#D"/>
                    <use fill="#FFF" xlink:href="#D"/>
                </g>
                <g transform="rotate(-41 173.204 36.796)">
                    <mask id="F" fill="#fff">
                        <use xlink:href="#E"/>
                    </mask>
                    <use fill="#6C6C6C" xlink:href="#E"/>
                    <g fill="#3BBC88" fill-rule="nonzero" mask="url(#F)">
                        <path d="M-2.98-3.25h17v17h-17z"/>
                    </g>
                </g>
                <g fill-rule="nonzero" transform="rotate(19 -396.808 229.004)">
                    <use fill="#000" filter="url(#G)" xlink:href="#H"/>
                    <use fill="#FFF" xlink:href="#H"/>
                </g>
                <g transform="rotate(-41 238.339 7.594)">
                    <mask id="J" fill="#fff">
                        <use xlink:href="#I"/>
                    </mask>
                    <use fill="#6C6C6C" xlink:href="#I"/>
                    <g fill="#8DBFE1" fill-rule="nonzero" mask="url(#J)">
                        <path d="M-1.625-1.625h16v16h-16z"/>
                    </g>
                </g>
                <g fill-rule="nonzero" transform="rotate(-1 8386.013 -6009.038)">
                    <use fill="#000" filter="url(#K)" xlink:href="#L"/>
                    <use fill="#FFF" xlink:href="#L"/>
                </g>
                <g transform="rotate(-41 267.133 -70.404)">
                    <mask id="N" fill="#fff">
                        <use xlink:href="#M"/>
                    </mask>
                    <use fill="#6D6D6C" xlink:href="#M"/>
                    <g fill="#8DBFE1" fill-rule="nonzero" mask="url(#N)">
                        <path d="M-3.25-3.52h18v18h-18z"/>
                    </g>
                </g>
                <g transform="rotate(-41 269.627 -75.877)">
                    <mask id="P" fill="#fff">
                        <use xlink:href="#O"/>
                    </mask>
                    <use fill="#6D6D6C" xlink:href="#O"/>
                    <g fill="#8DBFE1" fill-rule="nonzero" mask="url(#P)">
                        <path d="M-7.042-7.042h20v19h-20z"/>
                    </g>
                </g>
                <g>
                    <g fill-rule="nonzero" transform="rotate(90 31.075 141.946)">
                        <use fill="#000" filter="url(#Q)" xlink:href="#R"/>
                        <use fill="#FFF" xlink:href="#R"/>
                    </g>
                    <g transform="rotate(-41 243.66 -140.648)">
                        <mask id="T" fill="#fff">
                            <use xlink:href="#S"/>
                        </mask>
                        <use fill="#6C6C6C" xlink:href="#S"/>
                        <g fill="#66A0CD" fill-rule="nonzero" mask="url(#T)">
                            <path d="M-2.215-5.307h16v17h-16z"/>
                        </g>
                    </g>
                    <g transform="rotate(-41 238.64 -144.137)">
                        <mask id="V" fill="#fff">
                            <use xlink:href="#U"/>
                        </mask>
                        <use fill="#6D6D6C" xlink:href="#U"/>
                        <g fill="#66A0CD" fill-rule="nonzero" mask="url(#V)">
                            <path d="M-5.146-2.37h16v16h-16z"/>
                        </g>
                    </g>
                </g>
                <g>
                    <g fill-rule="nonzero" transform="rotate(76 48.85 140.388)">
                        <use fill="#000" filter="url(#W)" xlink:href="#X"/>
                        <use fill="#FFF" xlink:href="#X"/>
                    </g>
                    <g transform="rotate(-42 173.701 -168.576)">
                        <mask id="Z" fill="#fff">
                            <use xlink:href="#Y"/>
                        </mask>
                        <use fill="#6D6D6C" xlink:href="#Y"/>
                        <g fill="#5491C4" fill-rule="nonzero" mask="url(#Z)">
                            <path d="M-6.139-2.785h22v21h-22z"/>
                        </g>
                    </g>
                    <g transform="rotate(-42 182.517 -166.698)">
                        <mask id="ab" fill="#fff">
                            <use xlink:href="#aa"/>
                        </mask>
                        <use fill="#6D6D6C" xlink:href="#aa"/>
                        <g fill="#5491C4" fill-rule="nonzero" mask="url(#ab)">
                            <path d="M-2.528-8.216h22v21h-22z"/>
                        </g>
                    </g>
                    <g transform="rotate(-42 179.267 -175.165)">
                        <mask id="ad" fill="#fff">
                            <use xlink:href="#ac"/>
                        </mask>
                        <use fill="#6D6D6C" xlink:href="#ac"/>
                        <g fill="#5491C4" fill-rule="nonzero" mask="url(#ad)">
                            <path d="M-9.389-8.216h22v21h-22z"/>
                        </g>
                    </g>
                </g>
                <g>
                    <g fill-rule="nonzero" transform="rotate(64 63.855 124.754)">
                        <use fill="#000" filter="url(#ae)" xlink:href="#af"/>
                        <use fill="#FFF" xlink:href="#af"/>
                    </g>
                    <g transform="rotate(-41 107.658 -163.864)">
                        <mask id="ah" fill="#fff">
                            <use xlink:href="#ag"/>
                        </mask>
                        <use fill="#FFF" xlink:href="#ag"/>
                        <g fill="#3175AE" fill-rule="nonzero" mask="url(#ah)">
                            <path d="M-4.063-4.063h18v18h-18z"/>
                        </g>
                    </g>
                    <g transform="rotate(-41 110.38 -169.835)">
                        <mask id="aj" fill="#fff">
                            <use xlink:href="#ai"/>
                        </mask>
                        <use fill="#FFF" xlink:href="#ai"/>
                        <g fill="#3175AE" fill-rule="nonzero" mask="url(#aj)">
                            <path d="M-8.125-8.125h21v21h-21z"/>
                        </g>
                    </g>
                </g>
                <g>
                    <g fill-rule="nonzero" transform="rotate(-90 54.24 -25.643)">
                        <use fill="#000" filter="url(#ak)" xlink:href="#al"/>
                        <use fill="#FFF" xlink:href="#al"/>
                    </g>
                    <g transform="rotate(-41 59.22 -109.064)">
                        <mask id="an" fill="#fff">
                            <use xlink:href="#am"/>
                        </mask>
                        <use fill="#FFF" xlink:href="#am"/>
                        <g fill="#155694" fill-rule="nonzero" mask="url(#an)">
                            <path d="M-3.25-1.896h16v16h-16z"/>
                        </g>
                    </g>
                </g>
                <g>
                    <g fill-rule="nonzero" transform="rotate(4 -237.5 471.6)">
                        <use fill="#000" filter="url(#ao)" xlink:href="#ap"/>
                        <use fill="#FFF" xlink:href="#ap"/>
                    </g>
                    <g transform="rotate(-42 58.707 -30.849)">
                        <mask id="ar" fill="#fff">
                            <use xlink:href="#aq"/>
                        </mask>
                        <use fill="#FFF" xlink:href="#aq"/>
                        <g fill="#003F81" fill-rule="nonzero" mask="url(#ar)">
                            <path d="M-1.563-1.25h17v16h-17z"/>
                        </g>
                    </g>
                </g>
            </g>
        </g>
    </g>
</svg>
