<svg xmlns="http://www.w3.org/2000/svg" xmlns:xlink="http://www.w3.org/1999/xlink" width="24" height="24"><defs><circle id="a" cx="12" cy="12" r="12"/><path id="c" d="M12 24C5.373 24 0 18.627 0 12S5.373 0 12 0s12 5.373 12 12-5.373 12-12 12zm0-1c6.075 0 11-4.925 11-11S18.075 1 12 1 1 5.925 1 12s4.925 11 11 11z"/><path id="e" d="M4.251 3.547a.303.303 0 0 1 0-.428L6.521.85a.495.495 0 0 0 0-.704.5.5 0 0 0-.704 0l-2.27 2.27a.31.31 0 0 1-.427 0L.85.145A.5.5 0 0 0 0 .498C0 .63.052.756.146.85l2.27 2.27a.303.303 0 0 1 0 .427L.162 5.799a.514.514 0 0 0-.045.69.512.512 0 0 0 .732.032l2.27-2.27a.31.31 0 0 1 .427 0l2.27 2.27a.495.495 0 0 0 .732-.03.514.514 0 0 0-.046-.692L4.251 3.547z"/></defs><g fill="none" fill-rule="evenodd"><g opacity=".25"><mask id="b" fill="#fff"><use xlink:href="#a"/></mask><use fill="#FFF" fill-rule="nonzero" xlink:href="#a"/><g fill="#D30033" fill-rule="nonzero" mask="url(#b)"><path d="M0 0h24v24H0z"/></g></g><g opacity=".75"><mask id="d" fill="#fff"><use xlink:href="#c"/></mask><use fill="#FFF" fill-rule="nonzero" xlink:href="#c"/><g fill="#D30033" fill-rule="nonzero" mask="url(#d)" opacity=".4"><path d="M0 0h24v24H0z"/></g></g><g transform="translate(8.667 8.667)"><mask id="f" fill="#fff"><use xlink:href="#e"/></mask><use fill="#6D6D6C" xlink:href="#e"/><g fill="#D30033" fill-rule="nonzero" mask="url(#f)"><path d="M-4.583-4.583h16v16h-16z"/></g></g></g></svg>