<svg xmlns="http://www.w3.org/2000/svg" xmlns:xlink="http://www.w3.org/1999/xlink" width="24" height="24"><defs><circle id="a" cx="12" cy="12" r="12"/><path id="c" d="M12 24C5.373 24 0 18.627 0 12S5.373 0 12 0s12 5.373 12 12-5.373 12-12 12zm0-1c6.075 0 11-4.925 11-11S18.075 1 12 1 1 5.925 1 12s4.925 11 11 11z"/><path id="e" d="M3.297 7.534a.603.603 0 0 1-.442-.189L.14 4.414a.515.515 0 0 1 .062-.764.614.614 0 0 1 .822.057l1.978 2.137a.244.244 0 0 0 .377-.029L6.973.276A.62.62 0 0 1 7.75.058c.302.146.405.495.232.761L3.796 7.272a.59.59 0 0 1-.5.262"/></defs><g fill="none" fill-rule="evenodd"><g opacity=".25"><mask id="b" fill="#fff"><use xlink:href="#a"/></mask><use fill="#FFF" fill-rule="nonzero" xlink:href="#a"/><g fill="#00D371" fill-rule="nonzero" mask="url(#b)"><path d="M0 0h24v24H0z"/></g></g><g opacity=".75"><mask id="d" fill="#fff"><use xlink:href="#c"/></mask><use fill="#FFF" fill-rule="nonzero" xlink:href="#c"/><g fill="#00D371" fill-rule="nonzero" mask="url(#d)" opacity=".4"><path d="M0 0h24v24H0z"/></g></g><g transform="translate(8.25 8.25)"><mask id="f" fill="#fff"><use xlink:href="#e"/></mask><use fill="#6B6B6B" xlink:href="#e"/><g fill="#00D371" fill-rule="nonzero" mask="url(#f)"><path d="M-6.25-6.25h20v20h-20z"/></g></g></g></svg>